# Blender 4.2.3 LTS
# www.blender.org
o Cube
v -0.829245 -0.264868 0.094759
v -1.388539 4.073624 -2.692187
v -1.371568 4.170218 -2.698911
v -1.468361 4.186960 -2.702696
v -1.740016 5.879476 -0.023774
v -1.740016 6.033673 -0.023774
v -1.740016 6.033673 0.130424
v 1.329167 6.716731 1.510852
v 1.287822 6.856779 1.461312
v 1.406208 6.856779 1.362510
v -0.352438 6.510985 -0.828072
v -0.303777 6.642179 -0.763287
v -0.427657 6.642098 -0.670079
v 0.124370 6.078810 0.107302
v 0.172904 5.973079 -0.125608
v -0.475730 6.510985 -0.735465
v -1.426128 4.172254 -1.394993
v -1.407186 4.270081 -1.371339
v -1.502700 4.285497 -1.338152
v -1.485332 4.090366 -2.695972
v -1.041731 3.569836 -0.612591
v -0.770619 3.569836 -0.853214
v -0.656244 3.888760 -0.724346
v -0.927355 3.888760 -0.483723
v -1.518865 4.191499 -1.350750
v 0.048576 5.855903 0.104209
v -1.740016 5.879476 0.130424
v 0.057539 5.883853 -0.022082
v 0.054733 6.000058 -0.035192
v 0.300363 5.819110 0.006242
v 0.263456 5.950410 0.233908
v 0.263027 6.076547 -0.017538
v 1.447553 6.716731 1.412049
v -0.085033 3.984432 -0.324797
v -0.439622 4.125669 -0.496867
v -0.622534 4.125669 -0.121170
v 0.196548 5.748862 0.145006
v 0.119931 5.799372 -0.091154
v -0.602765 1.594779 -0.861646
v -0.224412 1.679101 -0.533077
v -0.551773 1.663866 -0.150500
v -0.893408 3.013724 -0.330186
v -0.568013 3.046296 -0.708415
v -0.188600 3.001582 -0.385852
v -0.472932 3.115241 0.024189
v 0.829245 0.264868 -0.094759
v 0.010767 0.264868 0.834572
v -0.925281 1.571334 -0.484778
v -0.005174 -0.262972 -0.836697
v 0.061353 6.027049 0.130407
vn -0.9342 -0.2266 -0.2756
vn 0.8005 -0.0009 -0.5994
vn -0.8538 -0.1480 0.4991
vn -0.3697 -0.8559 -0.3616
vn 0.9964 0.0329 0.0780
vn -0.8229 0.0671 0.5643
vn 0.8117 -0.4393 0.3849
vn -0.0160 -0.9760 -0.2171
vn 0.0187 0.9998 -0.0000
vn -0.4256 0.0668 0.9024
vn 0.4559 0.0628 -0.8878
vn 0.8317 -0.2629 0.4891
vn -0.8302 0.3757 -0.4119
vn -0.7266 -0.2411 -0.6434
vn 0.6195 0.1890 -0.7619
vn -0.7994 -0.0065 0.6008
vn 0.3324 0.8579 0.3917
vn -0.4220 0.8516 -0.3109
vn -0.5112 0.5259 -0.6798
vn 0.7832 -0.0337 -0.6208
vn 0.5379 0.2040 -0.8179
vn 0.5820 0.4185 0.6973
vn -1.0000 -0.0000 -0.0000
vn -0.6294 -0.4541 -0.6306
vn -0.7122 0.0418 0.7008
vn 0.7998 -0.1208 0.5881
vn -0.6526 0.7515 -0.0964
vn 0.6247 -0.0023 -0.7808
vn 0.3210 -0.9040 0.2824
vn -0.4518 -0.1736 0.8751
vn 0.6357 -0.1259 -0.7616
vn 0.0262 -0.0740 -0.9969
vn -0.1717 -0.9827 0.0697
vn -0.6037 0.0261 -0.7968
vn -0.1860 0.5803 0.7929
vn 0.9819 -0.1850 0.0414
vn 0.1543 0.9856 -0.0686
vn -0.9843 0.1723 -0.0373
vn -0.3850 -0.8130 -0.4368
vn 0.6678 0.0580 -0.7421
vn 0.2410 0.9322 0.2702
vn -0.8147 0.0600 0.5768
vn 0.0066 -0.0805 0.9967
vn 0.0036 0.9869 -0.1610
vn -0.0031 -0.0485 -0.9988
vn 0.0024 -1.0000 -0.0000
vn 0.1493 -0.8907 0.4293
vn -0.7431 -0.0623 0.6662
vn -0.2575 0.9168 -0.3052
vn 0.7626 0.0318 -0.6461
vn -0.7592 0.0861 -0.6451
vn 0.8911 -0.2441 0.3826
vn -0.8329 0.3767 -0.4055
vn -0.2775 -0.0175 0.9606
vn 0.4690 0.0605 -0.8811
vn 0.6483 0.0657 -0.7585
vn 0.7811 -0.1037 0.6157
vn -0.6453 -0.0620 0.7614
vn 0.5945 0.6079 0.5263
vn 0.5829 0.1893 -0.7902
vn -0.7033 0.1883 0.6855
vn -0.7294 -0.2432 -0.6394
vt 0.513452 0.006210
vt 0.553240 0.045998
vt 0.513452 0.085786
vt 0.553938 0.006210
vt 0.593726 0.045998
vt 0.553938 0.085786
vt 0.594424 0.006210
vt 0.634211 0.045998
vt 0.594424 0.085786
vt 0.796851 0.062478
vt 0.796851 0.006210
vt 0.853120 0.006210
vt 0.853120 0.062478
vt 0.513452 0.086483
vt 0.553240 0.126271
vt 0.513452 0.166059
vt 0.553938 0.086483
vt 0.593726 0.126271
vt 0.553938 0.166059
vt 0.594424 0.086483
vt 0.634211 0.126271
vt 0.594424 0.166059
vt 0.634909 0.006210
vt 0.674697 0.045998
vt 0.634909 0.085786
vt 0.634909 0.086483
vt 0.674697 0.126271
vt 0.634909 0.166059
vt 0.675395 0.006210
vt 0.715182 0.045998
vt 0.675395 0.085786
vt 0.675395 0.086483
vt 0.715182 0.126271
vt 0.675395 0.166059
vt 0.513452 0.166757
vt 0.553240 0.206544
vt 0.513452 0.246332
vt 0.553938 0.166757
vt 0.593726 0.206544
vt 0.553938 0.246332
vt 0.594424 0.166757
vt 0.634211 0.206544
vt 0.594424 0.246332
vt 0.634909 0.166757
vt 0.674697 0.206544
vt 0.634909 0.246332
vt 0.675395 0.166757
vt 0.715182 0.206544
vt 0.675395 0.246332
vt 0.796851 0.119445
vt 0.796851 0.063176
vt 0.853120 0.063176
vt 0.853120 0.119445
vt 0.796851 0.176411
vt 0.796851 0.120142
vt 0.853120 0.120142
vt 0.853120 0.176411
vt 0.796851 0.233377
vt 0.796851 0.177108
vt 0.853120 0.177108
vt 0.853120 0.233377
vt 0.715880 0.006210
vt 0.755668 0.045998
vt 0.715880 0.085786
vt 0.796851 0.290343
vt 0.796851 0.234075
vt 0.853120 0.234075
vt 0.853120 0.290343
vt 0.796851 0.347309
vt 0.796851 0.291041
vt 0.853120 0.291041
vt 0.853120 0.347309
vt 0.513452 0.383572
vt 0.513452 0.327303
vt 0.569721 0.327303
vt 0.569721 0.383572
vt 0.570419 0.383572
vt 0.570419 0.327303
vt 0.626687 0.327303
vt 0.626687 0.383572
vt 0.627385 0.383572
vt 0.627385 0.327303
vt 0.683653 0.327303
vt 0.683653 0.383572
vt 0.715880 0.086483
vt 0.755668 0.126271
vt 0.715880 0.166059
vt 0.715880 0.166757
vt 0.755668 0.206544
vt 0.715880 0.246332
vt 0.684351 0.383572
vt 0.684351 0.327303
vt 0.740619 0.327303
vt 0.740619 0.383572
vt 0.853817 0.062478
vt 0.853817 0.006210
vt 0.910086 0.006210
vt 0.910086 0.062478
vt 0.853817 0.119445
vt 0.853817 0.063176
vt 0.910086 0.063176
vt 0.910086 0.119445
vt 0.853817 0.176411
vt 0.853817 0.120142
vt 0.910086 0.120142
vt 0.910086 0.176411
vt 0.853817 0.233377
vt 0.853817 0.177108
vt 0.910086 0.177108
vt 0.910086 0.233377
vt 0.853817 0.290343
vt 0.853817 0.234075
vt 0.910086 0.234075
vt 0.910086 0.290343
vt 0.756366 0.006210
vt 0.796153 0.045998
vt 0.756366 0.085786
vt 0.756366 0.086483
vt 0.796153 0.126271
vt 0.756366 0.166059
vt 0.853817 0.347309
vt 0.853817 0.291041
vt 0.910086 0.291041
vt 0.910086 0.347309
vt 0.796851 0.404276
vt 0.796851 0.348007
vt 0.853120 0.348007
vt 0.853120 0.404276
vt 0.853817 0.404276
vt 0.853817 0.348007
vt 0.910086 0.348007
vt 0.910086 0.404276
vt 0.513452 0.440538
vt 0.513452 0.384270
vt 0.569721 0.384270
vt 0.569721 0.440538
vt 0.570419 0.440538
vt 0.570419 0.384270
vt 0.626687 0.384270
vt 0.626687 0.440538
vt 0.627385 0.440538
vt 0.627385 0.384270
vt 0.683653 0.384270
vt 0.683653 0.440538
vt 0.684351 0.440538
vt 0.684351 0.384270
vt 0.740619 0.384270
vt 0.740619 0.440538
vt 0.910784 0.062478
vt 0.910784 0.006210
vt 0.967052 0.006210
vt 0.967052 0.062478
vt 0.756366 0.166757
vt 0.796153 0.206544
vt 0.756366 0.246332
vt 0.910784 0.119445
vt 0.910784 0.063176
vt 0.967052 0.063176
vt 0.967052 0.119445
vt 0.513452 0.247030
vt 0.553240 0.286818
vt 0.513452 0.326606
vt 0.910784 0.176411
vt 0.910784 0.120142
vt 0.967052 0.120142
vt 0.967052 0.176411
vt 0.910784 0.233377
vt 0.910784 0.177108
vt 0.967052 0.177108
vt 0.967052 0.233377
vt 0.910784 0.290343
vt 0.910784 0.234075
vt 0.967052 0.234075
vt 0.967052 0.290343
vt 0.910784 0.347309
vt 0.910784 0.291041
vt 0.967052 0.291041
vt 0.967052 0.347309
vt 0.910784 0.404276
vt 0.910784 0.348007
vt 0.967052 0.348007
vt 0.967052 0.404276
vt 0.553938 0.247030
vt 0.593726 0.286818
vt 0.553938 0.326606
vt 0.594423 0.247030
vt 0.634211 0.286818
vt 0.594423 0.326606
vt 0.634909 0.247030
vt 0.674697 0.286818
vt 0.634909 0.326606
vt 0.675395 0.247030
vt 0.715182 0.286818
vt 0.675395 0.326606
vt 0.796851 0.461242
vt 0.796851 0.404973
vt 0.853120 0.404973
vt 0.853120 0.461242
vt 0.853817 0.461242
vt 0.853817 0.404973
vt 0.910086 0.404973
vt 0.910086 0.461242
vt 0.910784 0.461242
vt 0.910784 0.404973
vt 0.967052 0.404973
vt 0.967052 0.461242
vt 0.513452 0.497504
vt 0.513452 0.441236
vt 0.569721 0.441236
vt 0.569721 0.497504
vt 0.715880 0.247030
vt 0.755668 0.286818
vt 0.715880 0.326606
vt 0.570419 0.497504
vt 0.570419 0.441236
vt 0.626687 0.441236
vt 0.626687 0.497504
vt 0.756366 0.247030
vt 0.796153 0.286818
vt 0.756366 0.326606
s 0
f 38/1/1 26/2/1 29/3/1
f 12/4/2 15/5/2 11/6/2
f 13/7/3 29/8/3 14/9/3
f 29/10/4 16/11/4 11/12/4 15/13/4
f 26/14/5 28/15/5 29/16/5
f 21/17/6 42/18/6 24/19/6
f 37/20/7 30/21/7 31/22/7
f 28/23/8 26/24/8 27/25/8
f 6/26/9 7/27/9 29/28/9
f 37/29/10 36/30/10 45/31/10
f 38/32/11 34/33/11 35/34/11
f 37/35/12 34/36/12 30/37/12
f 26/38/13 38/39/13 36/40/13
f 49/41/14 1/42/14 48/43/14
f 40/44/15 49/45/15 39/46/15
f 13/47/16 16/48/16 29/49/16
f 32/50/17 12/51/17 13/52/17 14/53/17
f 35/54/18 23/55/18 24/56/18 36/57/18
f 16/58/19 13/59/19 12/60/19 11/61/19
f 15/62/20 12/63/20 32/64/20
f 34/65/21 22/66/21 23/67/21 35/68/21
f 33/69/22 10/70/22 9/71/22 8/72/22
f 27/73/23 7/74/23 6/75/23 5/76/23
f 43/77/24 42/78/24 21/79/24 22/80/24
f 24/81/25 42/82/25 45/83/25 36/84/25
f 44/85/26 34/86/26 45/87/26
f 14/88/27 29/89/27 50/90/27
f 44/91/28 43/92/28 22/93/28 34/94/28
f 47/95/29 1/96/29 49/97/29 46/98/29
f 31/99/30 50/100/30 26/101/30 37/102/30
f 15/103/31 32/104/31 30/105/31 38/106/31
f 20/107/32 4/108/32 3/109/32 2/110/32
f 25/111/33 20/112/33 2/113/33 17/114/33
f 38/115/34 29/116/34 15/117/34
f 50/118/35 31/119/35 14/120/35
f 18/121/36 17/122/36 2/123/36 3/124/36
f 19/125/37 18/126/37 3/127/37 4/128/37
f 19/129/38 4/130/38 20/131/38 25/132/38
f 22/133/39 21/134/39 25/135/39 17/136/39
f 23/137/40 22/138/40 17/139/40 18/140/40
f 23/141/41 18/142/41 19/143/41 24/144/41
f 24/145/42 19/146/42 25/147/42 21/148/42
f 26/149/43 50/150/43 7/151/43 27/152/43
f 29/153/44 7/154/44 50/155/44
f 29/156/45 28/157/45 5/158/45 6/159/45
f 5/160/46 28/161/46 27/162/46
f 31/163/47 30/164/47 33/165/47 8/166/47
f 14/167/48 31/168/48 8/169/48 9/170/48
f 14/171/49 9/172/49 10/173/49 32/174/49
f 32/175/50 10/176/50 33/177/50 30/178/50
f 48/179/51 42/180/51 43/181/51 39/182/51
f 34/183/52 37/184/52 45/185/52
f 38/186/53 35/187/53 36/188/53
f 37/189/54 26/190/54 36/191/54
f 30/192/55 34/193/55 38/194/55
f 39/195/56 43/196/56 44/197/56 40/198/56
f 41/199/57 40/200/57 44/201/57 45/202/57
f 48/203/58 41/204/58 45/205/58 42/206/58
f 47/207/59 46/208/59 40/209/59 41/210/59
f 49/211/60 40/212/60 46/213/60
f 47/214/61 41/215/61 48/216/61 1/217/61
f 48/218/62 39/219/62 49/220/62
