# Blender 4.2.3 LTS
# www.blender.org
o Plane
v -57.911854 -10.906939 57.951183
v 57.990509 -10.906939 57.951183
v -57.911854 -10.906939 -57.951183
v 57.990509 -10.906939 -57.951183
v -42.023170 -10.906939 57.951183
v -25.465693 -10.906939 57.951183
v -8.908210 -10.906939 57.951183
v 7.649271 -10.906939 57.951183
v 24.206753 -10.906939 57.951183
v 40.764233 -10.906939 57.951183
v 40.764233 -10.906939 -57.951183
v 24.206749 -10.906939 -57.951183
v 7.649269 -10.906939 -57.951183
v -8.908211 -10.906939 -57.951183
v -25.465694 -10.906939 -57.951183
v -42.023170 -10.906939 -57.951183
v -57.911854 -10.906939 -41.393703
v -57.911854 -10.906939 -24.836222
v -57.911854 -10.906939 -8.278739
v -57.911854 -10.906939 8.278741
v -57.911854 -10.906939 24.836224
v -57.911854 -10.906939 41.393703
v 57.990509 -10.906939 41.393703
v 57.990509 -10.906939 24.836222
v 57.990509 -10.906939 8.278740
v 57.990509 -10.906939 -8.278740
v 57.990509 -10.906939 -24.836224
v 57.990509 -10.906939 -41.393703
v 235.344498 -154.838196 -98.958626
v 57.990509 -10.906939 -24.836224
v 57.990509 -10.906939 -8.278740
v 57.990509 -10.906939 8.278740
v 57.990509 -10.906939 24.836222
v 57.990509 -10.906939 41.393703
v -57.911854 -10.906939 41.393703
v -57.911854 -10.906939 24.836224
v -57.911854 -10.906939 8.278741
v -57.911854 -10.906939 -8.278739
v -57.911854 -10.906939 -24.836222
v -57.911854 -10.906939 -41.393703
v -42.023170 -10.906939 -57.951183
v -25.465694 -10.906939 -57.951183
v -8.908211 -10.906939 -57.951183
v 7.649269 -10.906939 -57.951183
v 24.206749 -10.906939 -57.951183
v 40.764233 -10.906939 -57.951183
v 40.764233 -10.906939 57.951183
v 24.206753 -10.906939 57.951183
v 7.649271 -10.906939 57.951183
v -8.908210 -10.906939 57.951183
v -25.465693 -10.906939 57.951183
v -42.023170 -10.906939 57.951183
v 57.990509 -10.906939 -57.951183
v -57.911854 -10.906939 -57.951183
v 57.990509 -10.906939 57.951183
v -57.911854 -10.906939 57.951183
v 57.990509 -10.906939 -41.393703
v -36.291321 0.000000 35.714287
v -36.291321 0.000000 21.428572
v -36.291321 0.000000 7.142857
v -36.291321 0.000000 -7.142858
v -36.291321 0.000000 -21.428574
v -36.291321 0.000000 -35.714287
v -22.005608 0.000000 35.714287
v -22.005608 0.000000 21.428572
v -22.005608 0.000000 7.142857
v -22.005608 0.000000 -7.142858
v -22.005608 0.000000 -21.428574
v -22.005608 0.000000 -35.714287
v -7.719892 0.000000 35.714287
v -7.719892 0.000000 21.428572
v -7.719892 0.000000 7.142857
v -7.719892 0.000000 -7.142858
v -7.719892 0.000000 -21.428574
v -7.719893 0.000000 -35.714287
v 6.565823 0.000000 35.714287
v 6.565823 0.000000 21.428572
v 6.565823 0.000000 7.142857
v 6.565823 0.000000 -7.142858
v 6.565822 0.000000 -21.428574
v 6.565822 0.000000 -35.714287
v 20.851538 0.000000 35.714287
v 20.851538 0.000000 21.428572
v 20.851538 0.000000 7.142857
v 20.851538 0.000000 -7.142858
v 20.851538 0.000000 -21.428574
v 20.851536 0.000000 -35.714287
v 35.137253 0.000000 35.714287
v 35.137253 0.000000 21.428572
v 35.137253 0.000000 7.142857
v 35.137253 0.000000 -7.142858
v 35.137253 0.000000 -21.428574
v 35.137253 0.000000 -35.714287
v 235.344498 -154.838196 -32.104103
v 235.344498 -154.838196 34.750404
v 235.344498 -154.838196 101.604935
v 235.344498 -154.838196 168.459457
v -232.637100 -154.838196 168.459457
v -232.637100 -154.838196 101.604942
v -232.637100 -154.838196 34.750408
v -232.637100 -154.838196 -32.104099
v -232.637100 -154.838196 -98.958618
v -232.637100 -154.838196 -165.813126
v -168.483002 -154.838196 -232.667633
v -101.628510 -154.838196 -232.667633
v -34.773987 -154.838196 -232.667633
v 32.080524 -154.838196 -232.667633
v 98.935036 -154.838196 -232.667633
v 165.789566 -154.838196 -232.667633
v 165.789566 -154.838196 235.313965
v 98.935051 -154.838196 235.313965
v 32.080532 -154.838196 235.313965
v -34.773983 -154.838196 235.313965
v -101.628510 -154.838196 235.313965
v -168.483002 -154.838196 235.313965
v 235.344498 -154.838196 -232.667633
v -232.637100 -154.838196 -232.667633
v 235.344498 -154.838196 235.313965
v -232.637100 -154.838196 235.313965
v 235.344498 -154.838196 -165.813126
v 0.747505 -307.512177 0.789271
vn 0.6301 0.7765 -0.0000
vn -0.0000 0.7765 0.6301
vn -0.0000 0.7718 -0.6358
vn -0.6358 0.7718 -0.0000
vn 0.2244 0.9461 -0.2335
vn -0.2395 0.9433 -0.2298
vn -0.0000 0.8978 -0.4404
vn -0.0000 0.8978 0.4404
vn -0.0000 1.0000 -0.0000
vn -0.2395 0.9433 0.2298
vn -0.4504 0.8928 -0.0000
vn 0.2244 0.9461 0.2335
vn 0.4307 0.9025 -0.0000
vn -0.0000 -0.8381 0.5456
vn 0.5455 -0.8381 -0.0000
vn -0.0000 -0.8369 -0.5473
vn -0.5474 -0.8368 -0.0000
vt 0.421421 0.013239
vt 0.016256 0.063672
vt 0.969800 0.047503
vt 0.565170 0.047503
vt 0.454954 0.391492
vt 0.407744 0.012215
vt 0.978731 0.030569
vt 0.527014 0.030569
vt 0.465786 0.026146
vt 0.014629 0.032451
vt 0.969905 0.462689
vt 0.969905 0.027687
vt 0.013416 0.486401
vt 0.494154 0.479682
vt 0.004519 0.478318
vt 0.474865 0.478318
vt 0.468605 0.039389
vt 0.044481 0.045316
vt 0.027517 0.484789
vt 0.488772 0.484789
vt 0.434698 0.002011
vt 0.016996 0.054005
vt 0.313454 0.032271
vt 0.030188 0.217865
vt 0.013593 0.466783
vt 0.464402 0.476757
vt 0.013857 0.478031
vt 0.474816 0.478031
vt 0.025483 0.479341
vt 0.480249 0.479341
vt 0.975312 0.020597
vt 0.507519 0.020597
vt 0.990318 0.006348
vt 0.507783 0.006348
vt 0.012389 0.484953
vt 0.491598 0.484953
vt 0.043193 0.057593
vt 0.975312 0.470228
vt 0.139701 0.487374
vt 0.481222 0.372511
vt 0.952444 0.454219
vt 0.952444 0.057019
vt 0.491552 0.304095
vt 0.469407 0.024186
vt 0.017851 0.024186
vt 0.973644 0.445489
vt 0.973644 0.024475
vt 0.481202 0.022662
vt 0.026596 0.022662
vt 0.027901 0.473801
vt 0.477442 0.483747
vt 0.020004 0.131476
vt 0.090403 0.436869
vt 0.361525 0.016614
vt 0.012389 0.005744
vt 0.491598 0.005744
vt 0.025483 0.024574
vt 0.480249 0.024574
vt 0.027517 0.023533
vt 0.488772 0.023533
vt 0.004519 0.007972
vt 0.474865 0.007972
vt 0.013857 0.017072
vt 0.474816 0.017072
vt 0.990318 0.488883
vt 0.507783 0.488883
vt 0.009123 0.510332
vt 0.490378 0.510332
vt 0.490377 0.991586
vt 0.009123 0.991586
vt 0.043821 0.546463
vt 0.451274 0.546463
vt 0.451274 0.953917
vt 0.043821 0.953917
vt 0.044018 0.534876
vt 0.468702 0.534876
vt 0.468702 0.959561
vt 0.044018 0.959561
vt 0.020719 0.515949
vt 0.479791 0.515949
vt 0.479790 0.975022
vt 0.020719 0.975022
vt 0.017819 0.521802
vt 0.469471 0.521802
vt 0.469472 0.973454
vt 0.017819 0.973455
vt 0.969800 0.452134
vt 0.565170 0.452134
vt 0.034974 0.535414
vt 0.470471 0.535414
vt 0.470471 0.970910
vt 0.034974 0.970910
vt 0.023558 0.519995
vt 0.463506 0.519995
vt 0.463506 0.959943
vt 0.023558 0.959943
vt 0.013716 0.513808
vt 0.485589 0.513808
vt 0.485589 0.985680
vt 0.013716 0.985680
vt 0.020976 0.523763
vt 0.478329 0.523763
vt 0.478329 0.981117
vt 0.020976 0.981117
vt 0.024884 0.526603
vt 0.449310 0.526603
vt 0.449310 0.951029
vt 0.024884 0.951029
vt 0.978731 0.482287
vt 0.527014 0.482287
vt 0.036398 0.544619
vt 0.441931 0.544619
vt 0.441931 0.950151
vt 0.036398 0.950151
vt 0.031953 0.536450
vt 0.466366 0.536450
vt 0.466366 0.970863
vt 0.031953 0.970863
vt 0.011268 0.511853
vt 0.487050 0.511853
vt 0.487050 0.987634
vt 0.011268 0.987634
vt 0.036596 0.528861
vt 0.461722 0.528861
vt 0.461722 0.953988
vt 0.036596 0.953988
vt 0.042918 0.531359
vt 0.462240 0.531359
vt 0.462240 0.950679
vt 0.042918 0.950679
vt 0.481202 0.477267
vt 0.026596 0.477267
vt 0.047244 0.546880
vt 0.453628 0.546880
vt 0.453628 0.953265
vt 0.047244 0.953265
vt 0.023492 0.524076
vt 0.469434 0.524076
vt 0.469434 0.970019
vt 0.023492 0.970019
vt 0.037071 0.533743
vt 0.469074 0.533743
vt 0.469074 0.965745
vt 0.037071 0.965745
vt 0.010644 0.514419
vt 0.486688 0.514418
vt 0.486688 0.990462
vt 0.010644 0.990462
vt 0.032375 0.547193
vt 0.459684 0.547193
vt 0.459684 0.974501
vt 0.032375 0.974501
vt 0.469407 0.475743
vt 0.017851 0.475743
vt 0.017935 0.532933
vt 0.469839 0.532933
vt 0.469839 0.984837
vt 0.017935 0.984837
vt 0.003532 0.505251
vt 0.497460 0.505251
vt 0.497460 0.999180
vt 0.003532 0.999180
vt 0.007649 0.513715
vt 0.480124 0.513715
vt 0.480124 0.986189
vt 0.007649 0.986189
vt 0.023669 0.523064
vt 0.477323 0.523064
vt 0.477323 0.976719
vt 0.023669 0.976719
vt 0.014858 0.536225
vt 0.472916 0.536225
vt 0.472916 0.994282
vt 0.014858 0.994281
vt 0.208286 0.489689
vt 0.037445 0.042419
vt 0.486986 0.052365
vt 0.023164 0.034183
vt 0.473973 0.044157
vt 0.474293 0.446381
vt 0.050169 0.452308
vt 0.006969 0.025081
vt 0.487707 0.018362
vt 0.471836 0.459080
vt 0.020679 0.465385
vt 0.507519 0.470228
vt 0.539200 0.057019
vt 0.539199 0.454219
vt 0.535624 0.024475
vt 0.535624 0.445489
vt 0.517332 0.027687
vt 0.517332 0.462689
vt 0.068726 0.485203
vt 0.473891 0.434771
vt 0.071090 0.488580
vt 0.488792 0.436586
s 0
f 30/1/1 31/2/1 94/2/1 29/1/1
f 48/3/2 49/4/2 112/4/2 111/3/2
f 46/5/3 53/6/3 116/6/3 109/5/3
f 49/7/2 50/8/2 113/8/2 112/7/2
f 39/9/4 40/10/4 103/10/4 102/9/4
f 31/11/1 32/12/1 95/12/1 94/11/1
f 38/13/4 39/14/4 102/14/4 101/13/4
f 44/15/3 45/16/3 108/16/3 107/15/3
f 37/17/4 38/18/4 101/18/4 100/17/4
f 43/19/3 44/20/3 107/20/3 106/19/3
f 57/21/1 30/22/1 29/22/1 120/21/1
f 56/23/4 35/24/4 98/24/4 119/23/4
f 36/25/4 37/26/4 100/26/4 99/25/4
f 45/27/3 46/28/3 109/28/3 108/27/3
f 42/29/3 43/30/3 106/30/3 105/29/3
f 55/31/2 47/32/2 110/32/2 118/31/2
f 47/33/2 48/34/2 111/34/2 110/33/2
f 41/35/3 42/36/3 105/36/3 104/35/3
f 53/6/1 57/37/1 120/37/1 116/6/1
f 34/38/1 55/31/1 118/31/1 97/38/1
f 54/39/3 41/40/3 104/40/3 117/39/3
f 33/41/1 34/42/1 97/42/1 96/41/1
f 52/43/2 56/23/2 119/23/2 115/43/2
f 51/44/2 52/45/2 115/45/2 114/44/2
f 32/46/1 33/47/1 96/47/1 95/46/1
f 50/48/2 51/49/2 114/49/2 113/48/2
f 35/50/4 36/51/4 99/51/4 98/50/4
f 40/52/4 54/39/4 117/39/4 103/52/4
f 93/53/5 57/37/5 53/6/5 46/5/5
f 40/52/6 63/54/6 41/40/6 54/39/6
f 63/55/7 69/56/7 42/36/7 41/35/7
f 69/57/7 75/58/7 43/30/7 42/29/7
f 75/59/7 81/60/7 44/20/7 43/19/7
f 81/61/7 87/62/7 45/16/7 44/15/7
f 87/63/7 93/64/7 46/28/7 45/27/7
f 48/34/8 47/33/8 88/65/8 82/66/8
f 82/67/9 88/68/9 89/69/9 83/70/9
f 83/71/9 89/72/9 90/73/9 84/74/9
f 84/75/9 90/76/9 91/77/9 85/78/9
f 85/79/9 91/80/9 92/81/9 86/82/9
f 86/83/9 92/84/9 93/85/9 87/86/9
f 49/4/8 48/3/8 82/87/8 76/88/8
f 76/89/9 82/90/9 83/91/9 77/92/9
f 77/93/9 83/94/9 84/95/9 78/96/9
f 78/97/9 84/98/9 85/99/9 79/100/9
f 79/101/9 85/102/9 86/103/9 80/104/9
f 80/105/9 86/106/9 87/107/9 81/108/9
f 50/8/8 49/7/8 76/109/8 70/110/8
f 70/111/9 76/112/9 77/113/9 71/114/9
f 71/115/9 77/116/9 78/117/9 72/118/9
f 72/119/9 78/120/9 79/121/9 73/122/9
f 73/123/9 79/124/9 80/125/9 74/126/9
f 74/127/9 80/128/9 81/129/9 75/130/9
f 51/49/8 50/48/8 70/131/8 64/132/8
f 64/133/9 70/134/9 71/135/9 65/136/9
f 65/137/9 71/138/9 72/139/9 66/140/9
f 66/141/9 72/142/9 73/143/9 67/144/9
f 67/145/9 73/146/9 74/147/9 68/148/9
f 68/149/9 74/150/9 75/151/9 69/152/9
f 52/45/8 51/44/8 64/153/8 58/154/8
f 58/155/9 64/156/9 65/157/9 59/158/9
f 59/159/9 65/160/9 66/161/9 60/162/9
f 60/163/9 66/164/9 67/165/9 61/166/9
f 61/167/9 67/168/9 68/169/9 62/170/9
f 62/171/9 68/172/9 69/173/9 63/174/9
f 56/23/10 52/43/10 58/175/10 35/24/10
f 35/50/11 58/176/11 59/177/11 36/51/11
f 36/25/11 59/178/11 60/179/11 37/26/11
f 37/17/11 60/180/11 61/181/11 38/18/11
f 38/13/11 61/182/11 62/183/11 39/14/11
f 39/9/11 62/184/11 63/185/11 40/10/11
f 47/32/12 55/31/12 34/38/12 88/186/12
f 88/187/13 34/42/13 33/41/13 89/188/13
f 89/189/13 33/47/13 32/46/13 90/190/13
f 90/191/13 32/12/13 31/11/13 91/192/13
f 91/193/13 31/2/13 30/1/13 92/194/13
f 92/195/13 30/22/13 57/21/13 93/196/13
f 110/33/14 111/34/14 121/33/14
f 96/41/15 97/42/15 121/41/15
f 109/5/16 116/6/16 121/5/16
f 95/46/15 96/47/15 121/46/15
f 108/27/16 109/28/16 121/27/16
f 94/11/15 95/12/15 121/11/15
f 107/15/16 108/16/16 121/15/16
f 29/1/15 94/2/15 121/1/15
f 106/19/16 107/20/16 121/19/16
f 120/21/15 29/22/15 121/21/15
f 105/29/16 106/30/16 121/29/16
f 118/31/14 110/32/14 121/31/14
f 104/35/16 105/36/16 121/35/16
f 116/6/15 120/37/15 121/6/15
f 103/52/17 117/39/17 121/52/17
f 117/39/16 104/40/16 121/39/16
f 102/9/17 103/10/17 121/9/17
f 115/43/14 119/23/14 121/43/14
f 101/13/17 102/14/17 121/13/17
f 114/44/14 115/45/14 121/44/14
f 100/17/17 101/18/17 121/17/17
f 113/48/14 114/49/14 121/48/14
f 99/25/17 100/26/17 121/25/17
f 112/7/14 113/8/14 121/7/14
f 98/50/17 99/51/17 121/50/17
f 119/23/17 98/24/17 121/23/17
f 111/3/14 112/4/14 121/3/14
f 97/38/15 118/31/15 121/38/15
l 22 1
l 10 2
l 28 4
l 16 3
l 1 5
l 5 6
l 6 7
l 7 8
l 8 9
l 9 10
l 4 11
l 11 12
l 12 13
l 13 14
l 14 15
l 15 16
l 3 17
l 17 18
l 18 19
l 19 20
l 20 21
l 21 22
l 2 23
l 23 24
l 24 25
l 25 26
l 26 27
l 27 28
